# xmcd
#
# Track frame offsets:
#	150
#	12495
#	24085
#	36547
#	49610
#	58792
#	71070
#	82940
#	96567
#	107895
#	121367
#	134510
#	147097
#	158010
#	171352
#
# Disc length: 2515 seconds
#
# Revision: 0
# Processed by: cddbd v1.5.1PL2 Copyright (c) Steve Scherf et al.
# Submitted via: audiograbber 1.83.01
#
DISCID=d209d10f
DTITLE=Ralph Emery Presents Country Roads - I Will Always Love You
DYEAR=2006
DGENRE=Classic Country
TTITLE0=Hank Williams Sr. - Love Sick Blues
TTITLE1=Eddy Arnold - Bouquet Of Roses
TTITLE2=Hank Snow - Golden Rocket
TTITLE3=Jerry Lee Lewis - Whole lotta shakin' going on
TTITLE4=The Everly Brothers - Wake up little Suzie
TTITLE5=Johnny Cash - I Walk the Line
TTITLE6=Skeeter Davis - The end of the World
TTITLE7=Jimmy Dean - Big Bad John
TTITLE8=Don Gibson - Oh, Lonesome Me
TTITLE9=Ray Price - Heartaches by the Numbers
TTITLE10=Dolly Parton - I will always love you
TTITLE11=Porter Wagoner - A Satisfied Mind
TTITLE12=Charlie Walker - Pick me up on your way down
TTITLE13=Stuart Hamblen - This Ole House
TTITLE14=Emmylou Harris - Together Again
EXTD=
EXTT0=
EXTT1=
EXTT2=
EXTT3=
EXTT4=
EXTT5=
EXTT6=
EXTT7=
EXTT8=
EXTT9=
EXTT10=
EXTT11=
EXTT12=
EXTT13=
EXTT14=
PLAYORDER=
